{"title":"fa-Trina-michaels-Hard buttfuck and humliation-Hummel37.mp4","magnet":"magnet:?xt=urn:btih:6fc5f44fa1a6911d62904b736eb9f2580456af2f&dn=fa-Trina-michaels-Hard+buttfuck+and+humliation-Hummel37.mp4&tr=udp%3A%2F%2Ftracker.leechers-paradise.org%3A6969&tr=udp%3A%2F%2Fzer0day.ch%3A1337&tr=udp%3A%2F%2Fopen.demonii.com%3A1337&tr=udp%3A%2F%2Ftracker.coppersurfer.tk%3A6969&tr=udp%3A%2F%2Fexodus.desync.com%3A6969","uploader":"hummel37","categoryP":"porn","categoryS":"hd___movies","size":"566978554","seeders":"7","leechers":"2","description":"If you like it,SEED to allowed to me(Hummel37) upload new videos.\r\n\r\nVideo\r\nFormat                         : AVC-h265\r\nFormat/Info                    : Advanced Video Codec\r\nFormat profile                 : <a href=\"/cdn-cgi/l/email-protection\" class=\"__cf_email__\" data-cfemail=\"ffb29e9691bfb3cbd1ce\">[email&#xA0;protected]</a>\r\nFormat settings, CABAC         : Yes\r\nFormat settings, ReFrames      : 3 frames\r\nCodec ID                       : avc1\r\nCodec ID/Info                  : Advanced Video Coding\r\nDuration                       : 30 min 11 s\r\nSource duration                : 30 min 11 s\r\nBit rate mode                  : Variable\r\nBit rate                       : 2 183 kb/s\r\nMaximum bit rate               : 12.0 Mb/s\r\nWidth                          : 1 280 pixels\r\nHeight                         : 720 pixels\r\nDisplay aspect ratio           : 16:9\r\nFrame rate mode                : Constant\r\nFrame rate                     : 29.970 (30000/1001) FPS\r\nStandard                       : NTSC\r\nColor space                    : YUV\r\nChroma subsampling             : 4:2:0\r\nBit depth                      : 8 bits\r\nScan type                      : Progressive\r\nBits/(Pixel*Frame)             : 0.079\r\nStream size                    : 471 MiB (87%)\r\nSource stream size             : 471 MiB (87%)\r\nLanguage                       : English\r\nEncoded date                   : UTC 2015-05-06 17:58:45\r\nTagged date                    : UTC 2015-05-06 17:58:45\r\nColor range                    : Limited\r\n\r\nAudio\r\nID                             : 2\r\nFormat                         : AAC\r\nFormat/Info                    : Advanced Audio Codec\r\nFormat profile                 : LC\r\nCodec ID                       : 40\r\nDuration                       : 30 min 11 s\r\nSource duration                : 30 min 11 s\r\nBit rate mode                  : Variable\r\nBit rate                       : 317 kb/s\r\nMaximum bit rate               : 427 kb/s\r\nChannel(s)                     : 2 channels\r\nChannel positions              : Front: L R\r\nSampling rate                  : 48.0 kHz\r\nFrame rate                     : 46.875 FPS (1024 spf)\r\nCompression mode               : Lossy\r\nStream size                    : 68.5 MiB (13%)\r\nSource stream size             : 68.5 MiB (13%)\r\nLanguage                       : English\r\nEncoded date                   : UTC 2015-05-06 17:58:45\r\nTagged date                    : UTC 2015-05-06 17:58:45\r\n\r\n                                       PIC\r\n <a href=\"\nhttps://uploaddeimagens.com.br/imagens/fa-trina-michaels-hard_buttfuck_and_humliation-hummel37-mp4_thumbs__2017-11-24_14-58-25_-jpg\" rel=\"nofollow\" target=\"_NEW\">\nhttps://uploaddeimagens.com.br/imagens/fa-trina-michaels-hard_buttfuck_and_humliation-hummel37-mp4_thumbs__2017-11-24_14-58-25_-jpg</a>","last_updated":"2017-11-25T13:52:23.127Z","parsed":{"xt":"urn:btih:6fc5f44fa1a6911d62904b736eb9f2580456af2f","dn":"fa-Trina-michaels-Hard buttfuck and humliation-Hummel37.mp4","tr":["udp://exodus.desync.com:6969","udp://open.demonii.com:1337","udp://tracker.coppersurfer.tk:6969","udp://tracker.leechers-paradise.org:6969","udp://zer0day.ch:1337"],"infoHash":"6fc5f44fa1a6911d62904b736eb9f2580456af2f","infoHashBuffer":{"type":"Buffer","data":[111,197,244,79,161,166,145,29,98,144,75,115,110,185,242,88,4,86,175,47]},"name":"fa-Trina-michaels-Hard buttfuck and humliation-Hummel37.mp4","announce":["udp://exodus.desync.com:6969","udp://open.demonii.com:1337","udp://tracker.coppersurfer.tk:6969","udp://tracker.leechers-paradise.org:6969","udp://zer0day.ch:1337"],"urlList":[]}}